<svg xmlns="http://www.w3.org/2000/svg" width="28" height="28" viewBox="0 0 28 28">
  <path d="M7.4 1.6c1.4-.8 3.2-.1 4.1 1.4l15 21.1c1 1.5-.8 3.5-2.3 2.3L8.9 6.2Z" fill="#754b36" stroke="#392d29" stroke-width=".75" stroke-linejoin="round"/>
  <path d="M9.7 3.1 25.7 24.5c.4.5.3 1-.1 1.3L8.7 4.4Z" fill="#ad7757" opacity=".66"/>
  <path d="M6.6 2.6 9.5 4l3 7.7-3 2-5.1-3.4-1-4.9Z" fill="#302a22" stroke="#201d18" stroke-width=".55" stroke-linejoin="round"/>
  <g stroke="#74664e" stroke-width=".6" stroke-linecap="round" opacity=".96">
    <path d="M4.6 5.1 9.6 12M4.1 6.7l5 6.4M4 8.4l3.8 4.1M5.7 3.8l5.7 7M7.3 3.1l4.8 5.9"/>
  </g>
  <path d="M8.1 2.2c1.1-.3 2.1.1 2.8 1.2M12.8 8.5l2.6 2.7M16.5 13.7l2.4 2.8" fill="none" stroke="#bc8966" stroke-width=".6" stroke-linecap="round" opacity=".68"/>
  <circle cx="24.5" cy="24.3" r="1.15" fill="none" stroke="#392d29" stroke-width=".75"/>
</svg>
